<svg width="20" height="20" viewBox="0 0 20 20" fill="none" xmlns="http://www.w3.org/2000/svg">
<path opacity="0.4" d="M13.8863 18.3246H6.11175C4.90631 18.3995 3.72252 17.9816 2.83177 17.1674C2.0176 16.2759 1.59969 15.0921 1.67462 13.8875V6.11219C1.59969 4.9076 2.01677 3.72382 2.83093 2.83224C3.72252 2.01808 4.90631 1.60018 6.11175 1.6751H13.8863C15.0901 1.60018 16.273 2.01725 17.1638 2.83141C17.9771 3.72382 18.3959 4.90677 18.3243 6.11219V13.8875C18.3984 15.0921 17.9813 16.2759 17.1671 17.1674C16.2755 17.9816 15.0917 18.3995 13.8863 18.3246Z" fill="white"/>
<path d="M14.2115 8.66447L8.75082 14.1523C8.46684 14.4287 8.0936 14.5832 7.70413 14.5832H5.79737C5.69189 14.5832 5.59452 14.5425 5.5215 14.4693C5.44847 14.3962 5.41602 14.2986 5.41602 14.1929L5.4647 12.2661C5.47281 11.884 5.62698 11.5263 5.89474 11.258L9.76506 7.37992C9.82997 7.31488 9.94357 7.31488 10.0085 7.37992L11.3659 8.73195C11.4552 8.82057 11.585 8.87829 11.7229 8.87829C12.0232 8.87829 12.2585 8.63439 12.2585 8.34171C12.2585 8.19537 12.2017 8.06528 12.1124 7.96772C12.0881 7.9352 10.7955 6.64821 10.7955 6.64821C10.7144 6.56691 10.7144 6.4287 10.7955 6.3474L11.3392 5.79455C11.8422 5.29049 12.6536 5.29049 13.1567 5.79455L14.2115 6.85146C14.7064 7.3474 14.7064 8.16041 14.2115 8.66447Z" fill="white"/>
</svg>
